<svg width="485" height="156" viewBox="0 0 485 156" fill="none" xmlns="http://www.w3.org/2000/svg">
<g clip-path="url(#clip0_269_5320)">
<rect width="485" height="156" fill="#F4F4F4"/>
<path d="M5.28409 137V67.1818H34.125C39.3523 67.1818 43.8636 68.125 47.6591 70.0114C51.4773 71.875 54.4205 74.5568 56.4886 78.0568C58.5568 81.5341 59.5909 85.6591 59.5909 90.4318C59.5909 95.2727 58.5341 99.3864 56.4205 102.773C54.3068 106.136 51.3068 108.705 47.4205 110.477C43.5341 112.227 38.9318 113.102 33.6136 113.102H15.375V99.8068H30.4773C33.0227 99.8068 35.1477 99.4773 36.8523 98.8182C38.5795 98.1364 39.8864 97.1136 40.7727 95.75C41.6591 94.3636 42.1023 92.5909 42.1023 90.4318C42.1023 88.2727 41.6591 86.4886 40.7727 85.0795C39.8864 83.6477 38.5795 82.5795 36.8523 81.875C35.125 81.1477 33 80.7841 30.4773 80.7841H22.1591V137H5.28409ZM44.5909 105.091L61.9773 137H43.5682L26.5227 105.091H44.5909ZM83.608 137.886C80.267 137.886 77.3011 137.33 74.7102 136.216C72.142 135.08 70.108 133.375 68.608 131.102C67.1307 128.807 66.392 125.932 66.392 122.477C66.392 119.568 66.9034 117.114 67.9261 115.114C68.9489 113.114 70.358 111.489 72.1534 110.239C73.9489 108.989 76.017 108.045 78.358 107.409C80.6989 106.75 83.1989 106.307 85.858 106.08C88.8352 105.807 91.233 105.523 93.0511 105.227C94.8693 104.909 96.1875 104.466 97.0057 103.898C97.8466 103.307 98.267 102.477 98.267 101.409V101.239C98.267 99.4886 97.6648 98.1364 96.4602 97.1818C95.2557 96.2273 93.6307 95.75 91.5852 95.75C89.3807 95.75 87.608 96.2273 86.267 97.1818C84.9261 98.1364 84.0739 99.4545 83.7102 101.136L68.3352 100.591C68.7898 97.4091 69.9602 94.5682 71.8466 92.0682C73.7557 89.5455 76.3693 87.5682 79.6875 86.1364C83.0284 84.6818 87.0398 83.9545 91.7216 83.9545C95.0625 83.9545 98.142 84.3523 100.96 85.1477C103.778 85.9205 106.233 87.0568 108.324 88.5568C110.415 90.0341 112.028 91.8523 113.165 94.0114C114.324 96.1705 114.903 98.6364 114.903 101.409V137H99.2216V129.705H98.8125C97.8807 131.477 96.6875 132.977 95.233 134.205C93.8011 135.432 92.108 136.352 90.1534 136.966C88.2216 137.58 86.0398 137.886 83.608 137.886ZM88.7557 126.977C90.5511 126.977 92.1648 126.614 93.5966 125.886C95.0511 125.159 96.2102 124.159 97.0739 122.886C97.9375 121.591 98.3693 120.091 98.3693 118.386V113.409C97.892 113.659 97.3125 113.886 96.6307 114.091C95.9716 114.295 95.2443 114.489 94.4489 114.67C93.6534 114.852 92.8352 115.011 91.9943 115.148C91.1534 115.284 90.3466 115.409 89.5739 115.523C88.0057 115.773 86.6648 116.159 85.5511 116.682C84.4602 117.205 83.6193 117.886 83.0284 118.727C82.4602 119.545 82.1761 120.523 82.1761 121.659C82.1761 123.386 82.7898 124.705 84.017 125.614C85.267 126.523 86.8466 126.977 88.7557 126.977ZM133.415 156.636C131.415 156.636 129.528 156.477 127.756 156.159C125.983 155.864 124.46 155.466 123.188 154.966L126.869 142.864C128.506 143.409 129.983 143.727 131.301 143.818C132.642 143.909 133.79 143.693 134.744 143.17C135.722 142.67 136.472 141.773 136.994 140.477L137.642 138.909L119.028 84.6364H136.483L146.131 122H146.676L156.46 84.6364H174.017L154.278 142.011C153.324 144.875 151.972 147.398 150.222 149.58C148.494 151.784 146.256 153.511 143.506 154.761C140.778 156.011 137.415 156.636 133.415 156.636Z" fill="#040720"/>
<path d="M197.08 107.136V137H180.409V67.1818H196.534V94.25H197.114C198.295 91.0227 200.227 88.5 202.909 86.6818C205.614 84.8636 208.92 83.9545 212.83 83.9545C216.511 83.9545 219.716 84.7727 222.443 86.4091C225.17 88.0227 227.284 90.3068 228.784 93.2614C230.307 96.2159 231.057 99.6705 231.034 103.625V137H214.364V106.898C214.386 103.989 213.659 101.716 212.182 100.08C210.705 98.4432 208.625 97.625 205.943 97.625C204.193 97.625 202.648 98.0114 201.307 98.7841C199.989 99.5341 198.955 100.614 198.205 102.023C197.477 103.432 197.102 105.136 197.08 107.136ZM256.202 137.886C252.861 137.886 249.895 137.33 247.304 136.216C244.736 135.08 242.702 133.375 241.202 131.102C239.724 128.807 238.986 125.932 238.986 122.477C238.986 119.568 239.497 117.114 240.52 115.114C241.543 113.114 242.952 111.489 244.747 110.239C246.543 108.989 248.611 108.045 250.952 107.409C253.293 106.75 255.793 106.307 258.452 106.08C261.429 105.807 263.827 105.523 265.645 105.227C267.463 104.909 268.781 104.466 269.599 103.898C270.44 103.307 270.861 102.477 270.861 101.409V101.239C270.861 99.4886 270.259 98.1364 269.054 97.1818C267.849 96.2273 266.224 95.75 264.179 95.75C261.974 95.75 260.202 96.2273 258.861 97.1818C257.52 98.1364 256.668 99.4545 256.304 101.136L240.929 100.591C241.384 97.4091 242.554 94.5682 244.44 92.0682C246.349 89.5455 248.963 87.5682 252.281 86.1364C255.622 84.6818 259.634 83.9545 264.315 83.9545C267.656 83.9545 270.736 84.3523 273.554 85.1477C276.372 85.9205 278.827 87.0568 280.918 88.5568C283.009 90.0341 284.622 91.8523 285.759 94.0114C286.918 96.1705 287.497 98.6364 287.497 101.409V137H271.815V129.705H271.406C270.474 131.477 269.281 132.977 267.827 134.205C266.395 135.432 264.702 136.352 262.747 136.966C260.815 137.58 258.634 137.886 256.202 137.886ZM261.349 126.977C263.145 126.977 264.759 126.614 266.19 125.886C267.645 125.159 268.804 124.159 269.668 122.886C270.531 121.591 270.963 120.091 270.963 118.386V113.409C270.486 113.659 269.906 113.886 269.224 114.091C268.565 114.295 267.838 114.489 267.043 114.67C266.247 114.852 265.429 115.011 264.588 115.148C263.747 115.284 262.94 115.409 262.168 115.523C260.599 115.773 259.259 116.159 258.145 116.682C257.054 117.205 256.213 117.886 255.622 118.727C255.054 119.545 254.77 120.523 254.77 121.659C254.77 123.386 255.384 124.705 256.611 125.614C257.861 126.523 259.44 126.977 261.349 126.977ZM314.361 107.136V137H297.69V84.6364H313.543V94.25H314.122C315.281 91.0455 317.259 88.5341 320.054 86.7159C322.849 84.875 326.179 83.9545 330.043 83.9545C333.724 83.9545 336.918 84.7841 339.622 86.4432C342.349 88.0795 344.463 90.375 345.963 93.3295C347.486 96.2614 348.236 99.6932 348.213 103.625V137H331.543V106.898C331.565 103.989 330.827 101.716 329.327 100.08C327.849 98.4432 325.793 97.625 323.156 97.625C321.406 97.625 319.861 98.0114 318.52 98.7841C317.202 99.5341 316.179 100.614 315.452 102.023C314.747 103.432 314.384 105.136 314.361 107.136Z" fill="#F24545"/>
</g>
<defs>
<clipPath id="clip0_269_5320">
<rect width="485" height="156" fill="white"/>
</clipPath>
</defs>
</svg>
